<svg width="617" height="489" viewBox="0 0 617 489" fill="none" xmlns="http://www.w3.org/2000/svg">
<rect y="0.999935" width="63.3124" height="65.4283" rx="7" transform="matrix(0.866044 0.499967 -0.866044 0.499967 167.106 83.8817)" stroke="#8625D2" stroke-width="2"/>
<rect y="0.999935" width="77.9072" height="80.4959" rx="38.9536" transform="matrix(0.866044 0.499967 -0.866044 0.499967 72.3111 295.467)" stroke="#8625D2" stroke-width="2"/>
<path d="M257.344 330.882L164.844 386.382C164.844 386.382 159.844 388.882 155.344 386.382C150.844 383.882 102.844 356.382 102.844 356.382" stroke="#8625D2" stroke-width="2"/>
<rect y="0.999935" width="241.564" height="146.09" rx="7" transform="matrix(0.866044 0.499967 -0.866044 0.499967 277.963 195.788)" stroke="#8625D2" stroke-width="2"/>
<circle cx="257" cy="331" r="2" fill="#8625D2"/>
<path d="M291.844 350.382C291.844 350.382 251.845 378.882 244.845 384.382C237.845 389.882 244.845 394.382 244.845 394.382C244.845 394.382 387.846 478.382 400.345 484.382C412.844 490.382 422.845 484.382 422.845 484.382L537.5 412.5" stroke="#8625D2" stroke-width="2"/>
<g filter="url(#filter0_d)">
<path d="M302.5 428L293 422.5" stroke="#FF508F" stroke-width="4" stroke-linecap="round" stroke-linejoin="round"/>
</g>
<g clip-path="url(#clip0)">
<path d="M50.0081 315.505C61.0087 309.177 78.8666 309.177 89.8672 315.505C91.5308 316.442 93.0632 317.593 94.4249 318.927C100.64 312.743 99.1483 304.662 89.9293 299.364C78.9287 293.036 61.0708 293.036 50.0702 299.364C40.7684 304.6 39.2768 312.743 45.5125 318.927C46.8466 317.587 48.3593 316.436 50.0081 315.505Z" fill="#4F4B63"/>
<path d="M112.449 310.826C110.246 308.813 107.821 307.056 105.218 305.59C100.59 302.999 95.6372 301.031 90.4889 299.735C100.744 306.208 100.433 316.227 89.5359 322.411C78.3281 328.863 60.1387 328.863 48.9102 322.411C38.4897 316.454 37.7439 306.889 46.9421 300.374C42.6588 301.618 38.5358 303.354 34.6571 305.549C32.055 307.015 29.6292 308.772 27.4269 310.785H20.031V325.812C20.031 333.151 24.8995 340.49 34.6571 346.097C54.1309 357.29 85.724 357.29 105.218 346.097C114.955 340.49 119.845 333.151 119.845 325.812V310.826H112.449Z" fill="#1B181F"/>
<path d="M105.218 291.799C85.7237 280.605 54.1306 280.605 34.6568 291.799C15.183 302.992 15.1623 321.154 34.6568 332.347C54.1513 343.541 85.7237 343.541 105.218 332.347C124.713 321.154 124.713 302.992 105.218 291.799ZM89.8878 323.751C78.68 330.183 60.4907 330.183 49.2622 323.751C38.0337 317.319 38.0544 306.847 49.2622 300.374C60.4699 293.902 78.68 293.943 89.8878 300.374C101.096 306.806 101.116 317.299 89.8878 323.751Z" fill="#1E1B22"/>
<path d="M105.218 330.801C85.7239 341.995 54.1308 341.995 34.657 330.801C25.2516 325.4 20.3831 318.433 20.1552 311.3C19.6995 318.927 24.5679 326.555 34.657 332.347C54.1308 343.541 85.7239 343.541 105.218 332.347C115.308 326.555 120.176 318.886 119.72 311.3C119.492 318.371 114.624 325.4 105.218 330.801Z" fill="#1E1B22"/>
<path d="M89.8878 298.849C78.68 292.417 60.4907 292.417 49.2621 298.849C43.3164 302.271 40.5197 306.827 40.9754 311.218C41.2862 307.26 44.0829 303.343 49.2621 300.313C60.4907 293.881 78.68 293.881 89.8878 300.313C95.1499 303.343 97.9466 307.26 98.1745 311.218C98.5681 306.827 95.8542 302.271 89.8878 298.849Z" fill="#1E1B22"/>
<path d="M102.96 291.778C84.8122 281.471 55.3115 281.471 37.2672 291.778C19.2229 302.085 19.1193 319.113 37.2672 329.523C55.4151 339.933 84.9158 339.954 102.96 329.523C121.004 319.092 121.108 302.209 102.96 291.778ZM89.7221 321.937C78.8872 328.121 61.3194 328.121 50.4845 321.937C39.6496 315.753 39.6496 305.61 50.4845 299.385C61.3194 293.159 78.8872 293.201 89.7221 299.385C100.557 305.569 100.64 315.711 89.7221 321.937Z" fill="#1E1B22"/>
<path opacity="0.4" d="M70.1036 326.596C85.4238 326.596 97.8434 319.461 97.8434 310.661C97.8434 301.86 85.4238 294.726 70.1036 294.726C54.7833 294.726 42.3638 301.86 42.3638 310.661C42.3638 319.461 54.7833 326.596 70.1036 326.596Z" fill="#8625D2"/>
<path style="mix-blend-mode:lighten" opacity="0.5" d="M97.8434 310.352V166.382H42.3638V310.537C42.3638 314.66 44.9948 318.783 50.464 321.937C61.2989 328.121 78.8668 328.121 89.7017 321.937C95.2745 318.742 97.9677 314.536 97.8434 310.352Z" fill="url(#paint0_linear)"/>
<path opacity="0.4" d="M90.5715 252.673C90.5715 252.999 90.4743 253.318 90.2922 253.589C90.1101 253.86 89.8513 254.072 89.5484 254.197C89.2456 254.321 88.9124 254.354 88.5909 254.29C88.2694 254.227 87.9741 254.07 87.7423 253.839C87.5105 253.608 87.3526 253.315 87.2887 252.995C87.2247 252.675 87.2576 252.343 87.383 252.042C87.5084 251.741 87.7209 251.483 87.9934 251.302C88.266 251.121 88.5864 251.024 88.9142 251.024C89.3537 251.024 89.7753 251.198 90.0861 251.507C90.3969 251.816 90.5715 252.236 90.5715 252.673Z" fill="#8625D2"/>
<path opacity="0.4" d="M61.5889 177.225C61.5889 177.551 61.4917 177.87 61.3095 178.141C61.1274 178.412 60.8686 178.624 60.5658 178.748C60.2629 178.873 59.9297 178.906 59.6082 178.842C59.2867 178.779 58.9914 178.622 58.7596 178.391C58.5278 178.16 58.37 177.866 58.306 177.547C58.2421 177.227 58.2749 176.895 58.4003 176.594C58.5258 176.292 58.7382 176.035 59.0107 175.854C59.2833 175.672 59.6037 175.576 59.9315 175.576C60.1492 175.576 60.3647 175.618 60.5658 175.701C60.7668 175.784 60.9495 175.906 61.1034 176.059C61.2573 176.212 61.3794 176.394 61.4627 176.594C61.546 176.794 61.5889 177.008 61.5889 177.225Z" fill="#8625D2"/>
<path opacity="0.4" d="M64.8208 233.605C64.8208 234.086 64.6774 234.556 64.4088 234.956C64.1402 235.356 63.7584 235.668 63.3117 235.852C62.865 236.036 62.3735 236.084 61.8993 235.991C61.4251 235.897 60.9895 235.665 60.6476 235.325C60.3058 234.985 60.0729 234.551 59.9786 234.079C59.8843 233.608 59.9327 233.118 60.1177 232.674C60.3027 232.229 60.6161 231.85 61.0181 231.582C61.4201 231.315 61.8927 231.172 62.3762 231.172C63.0246 231.172 63.6464 231.429 64.1048 231.885C64.5632 232.341 64.8208 232.96 64.8208 233.605Z" fill="#8625D2"/>
<path opacity="0.8" d="M60.3872 275.163C60.3817 275.619 60.196 276.054 59.8702 276.374C59.5445 276.695 59.1049 276.874 58.647 276.874C58.1909 276.874 57.7536 276.694 57.4311 276.373C57.1087 276.052 56.9275 275.617 56.9275 275.163C56.9275 274.707 57.108 274.27 57.4298 273.946C57.7517 273.622 58.1891 273.437 58.647 273.432C59.1068 273.437 59.5464 273.621 59.8716 273.945C60.1967 274.268 60.3818 274.706 60.3872 275.163Z" fill="#8625D2"/>
<path opacity="0.8" d="M84.9988 205.549C84.9988 206.249 84.7194 206.92 84.2221 207.415C83.7248 207.909 83.0504 208.187 82.3471 208.187C81.6438 208.187 80.9693 207.909 80.472 207.415C79.9747 206.92 79.6953 206.249 79.6953 205.549C79.6953 204.849 79.9747 204.178 80.472 203.683C80.9693 203.188 81.6438 202.91 82.3471 202.91C83.0504 202.91 83.7248 203.188 84.2221 203.683C84.7194 204.178 84.9988 204.849 84.9988 205.549Z" fill="#8625D2"/>
<path opacity="0.8" d="M82.9271 214.145C82.9312 214.501 82.8285 214.851 82.632 215.149C82.4356 215.447 82.1543 215.68 81.8241 215.818C81.4939 215.957 81.1298 215.994 80.7783 215.925C80.4268 215.857 80.1037 215.686 79.8504 215.434C79.5971 215.182 79.425 214.86 79.3561 214.51C79.2873 214.161 79.3247 213.798 79.4637 213.47C79.6027 213.141 79.8369 212.861 80.1364 212.666C80.436 212.47 80.7873 212.368 81.1455 212.372C81.3802 212.369 81.6131 212.413 81.8306 212.501C82.048 212.59 82.2455 212.72 82.4115 212.885C82.5775 213.05 82.7086 213.247 82.7972 213.463C82.8857 213.68 82.9299 213.911 82.9271 214.145Z" fill="#8625D2"/>
</g>
<g clip-path="url(#clip1)">
<path d="M616.844 394.854V380.346L614.193 378.87C613.444 383.406 608.12 386.381 603.672 387.001L573.349 404.74L560.134 409.512L517.9 387.729L518.884 387.151C515.27 385.46 513.324 381.609 511.378 378.1L508.534 379.726L506.844 380.261V395.004C506.947 396.121 507.346 397.189 508 398.1C508.655 399.01 509.54 399.729 510.565 400.182L552.863 424.661C555.646 426.075 558.723 426.811 561.844 426.811C564.966 426.811 568.043 426.075 570.826 424.661L613.124 400.182C614.13 399.726 615.001 399.017 615.652 398.125C616.304 397.233 616.715 396.187 616.844 395.09C616.844 395.09 616.844 394.918 616.844 394.854Z" fill="#1B181F"/>
<path d="M616.844 381.973V372.365L614.193 370.91C613.444 375.425 608.12 378.399 603.672 379.02L573.349 396.844L560.134 401.552L517.9 379.726L518.884 379.148C515.27 377.586 513.26 373.628 511.378 370.118L508.534 371.809L506.844 372.279V382.122C506.947 383.239 507.346 384.308 508 385.218C508.655 386.129 509.54 386.848 510.565 387.301L552.863 411.823C555.646 413.236 558.723 413.973 561.844 413.973C564.966 413.973 568.043 413.236 570.826 411.823L613.124 387.301C614.13 386.844 615.001 386.136 615.652 385.243C616.304 384.351 616.715 383.306 616.844 382.208C616.844 382.208 616.844 382.037 616.844 381.973Z" fill="#1B181F"/>
<path opacity="0.3" d="M603.672 379.02L573.349 396.844L561.844 401.124V413.962C564.971 414.027 568.063 413.29 570.826 411.823L613.123 387.301C614.129 386.844 615 386.135 615.652 385.243C616.304 384.351 616.715 383.306 616.844 382.208C616.844 382.208 616.844 382.037 616.844 381.973V372.365L614.406 371.017H614.15C613.337 375.446 608.077 378.421 603.672 379.02Z" fill="#1B181F"/>
<path d="M518.884 379.17L558.958 356.017C559.85 355.569 560.835 355.336 561.834 355.336C562.832 355.336 563.817 355.569 564.71 356.017L604.1 378.763L603.672 379.02C608.12 378.399 613.444 375.425 614.193 370.91L569.992 346.302L557.161 342.9L546.705 349.063L511.378 370.118C513.26 373.628 515.27 377.586 518.884 379.17Z" fill="#4F4B63"/>
<path opacity="0.3" d="M561.844 344.141L557.119 342.9L546.662 349.063L511.378 370.118C513.26 373.628 515.27 377.586 518.884 379.17L558.958 356.017C559.848 355.551 560.84 355.316 561.844 355.332V344.141Z" fill="#1E1B22"/>
<path d="M552.863 402.001L510.565 377.586C505.604 374.719 505.604 370.075 510.565 367.208L552.863 342.75C555.646 341.337 558.723 340.6 561.844 340.6C564.966 340.6 568.043 341.337 570.826 342.75L613.124 367.187C618.042 370.054 618.042 374.697 613.124 377.586L570.826 402.001C568.043 403.415 564.966 404.151 561.844 404.151C558.723 404.151 555.646 403.415 552.863 402.001ZM564.71 346.367C563.817 345.919 562.832 345.685 561.834 345.685C560.835 345.685 559.85 345.919 558.958 346.367L516.66 370.717C516.315 370.837 516.016 371.06 515.805 371.358C515.593 371.655 515.479 372.011 515.479 372.376C515.479 372.741 515.593 373.097 515.805 373.394C516.016 373.691 516.315 373.915 516.66 374.034L558.958 398.47C559.85 398.918 560.835 399.152 561.834 399.152C562.832 399.152 563.817 398.918 564.71 398.47L607.008 374.034C607.352 373.915 607.651 373.691 607.863 373.394C608.075 373.097 608.188 372.741 608.188 372.376C608.188 372.011 608.075 371.655 607.863 371.358C607.651 371.06 607.352 370.837 607.008 370.717L564.71 346.367Z" fill="#1E1B22"/>
<path d="M607.008 370.717L564.71 346.281C563.817 345.833 562.832 345.6 561.834 345.6C560.835 345.6 559.85 345.833 558.957 346.281L516.66 370.717C515.612 371.317 515.248 372.194 515.612 372.857C515.845 372.408 516.211 372.042 516.66 371.809L558.957 347.479C559.85 347.031 560.835 346.798 561.834 346.798C562.832 346.798 563.817 347.031 564.71 347.479L607.008 371.916C607.462 372.149 607.835 372.514 608.077 372.964C608.419 372.194 608.077 371.317 607.008 370.717Z" fill="#1E1B22"/>
<path d="M613.124 377.586L570.826 402.001C568.043 403.415 564.965 404.151 561.844 404.151C558.723 404.151 555.646 403.415 552.863 402.001L510.565 377.586C509.63 377.156 508.807 376.515 508.161 375.713C507.516 374.911 507.065 373.97 506.844 372.964C506.796 374.19 507.121 375.402 507.779 376.438C508.436 377.474 509.393 378.285 510.522 378.763L552.863 403.264C555.646 404.677 558.723 405.414 561.844 405.414C564.965 405.414 568.043 404.677 570.826 403.264L613.124 378.763C614.253 378.287 615.209 377.476 615.863 376.439C616.517 375.402 616.837 374.189 616.78 372.964C616.565 373.963 616.123 374.9 615.489 375.701C614.855 376.502 614.046 377.147 613.124 377.586Z" fill="#1E1B22"/>
<path d="M554.061 401.316L511.763 376.88C507.486 374.398 507.486 370.461 511.763 367.871L554.061 343.35C556.471 342.117 559.138 341.475 561.844 341.475C564.551 341.475 567.218 342.117 569.628 343.35L611.926 367.871C616.203 370.354 616.203 374.398 611.926 376.88L569.628 401.316C567.218 402.548 564.551 403.191 561.844 403.191C559.138 403.191 556.471 402.548 554.061 401.316ZM565.907 345.682C564.646 345.038 563.25 344.702 561.834 344.702C560.418 344.702 559.021 345.038 557.76 345.682L515.398 370.033C514.912 370.203 514.492 370.519 514.194 370.939C513.896 371.359 513.736 371.861 513.736 372.376C513.736 372.89 513.896 373.393 514.194 373.812C514.492 374.232 514.912 374.549 515.398 374.719L557.76 399.155C559.021 399.799 560.418 400.135 561.834 400.135C563.25 400.135 564.646 399.799 565.907 399.155L608.205 374.719C608.691 374.549 609.112 374.232 609.409 373.812C609.707 373.393 609.867 372.89 609.867 372.376C609.867 371.861 609.707 371.359 609.409 370.939C609.112 370.519 608.691 370.203 608.205 370.033L565.907 345.682Z" fill="#1E1B22"/>
<path opacity="0.4" d="M564.71 346.281C563.817 345.833 562.832 345.6 561.834 345.6C560.835 345.6 559.85 345.833 558.957 346.281L516.66 370.717C516.315 370.837 516.016 371.06 515.804 371.358C515.593 371.655 515.479 372.011 515.479 372.376C515.479 372.741 515.593 373.097 515.804 373.394C516.016 373.691 516.315 373.915 516.66 374.034L558.957 398.47C559.85 398.918 560.835 399.152 561.834 399.152C562.832 399.152 563.817 398.918 564.71 398.47L607.008 374.034C607.352 373.915 607.651 373.691 607.863 373.394C608.074 373.097 608.188 372.741 608.188 372.376C608.188 372.011 608.074 371.655 607.863 371.358C607.651 371.06 607.352 370.837 607.008 370.717L564.71 346.281Z" fill="#8625D2"/>
<path style="mix-blend-mode:lighten" opacity="0.5" d="M608.205 372.344V221.382H515.398V372.344C515.416 372.707 515.536 373.058 515.744 373.357C515.952 373.656 516.24 373.89 516.574 374.034L558.957 398.47C559.85 398.918 560.835 399.152 561.834 399.152C562.832 399.152 563.817 398.918 564.71 398.47L607.008 374.034C607.334 373.877 607.615 373.639 607.824 373.344C608.034 373.048 608.165 372.704 608.205 372.344Z" fill="url(#paint1_linear)"/>
<path opacity="0.4" d="M578.572 279.583C578.572 279.257 578.474 278.938 578.292 278.667C578.11 278.395 577.851 278.184 577.548 278.059C577.246 277.934 576.912 277.902 576.591 277.965C576.269 278.029 575.974 278.186 575.742 278.417C575.51 278.647 575.353 278.941 575.289 279.261C575.225 279.581 575.258 279.913 575.383 280.214C575.508 280.515 575.721 280.773 575.993 280.954C576.266 281.135 576.586 281.232 576.914 281.232C577.354 281.232 577.775 281.058 578.086 280.749C578.397 280.44 578.572 280.02 578.572 279.583Z" fill="#8625D2"/>
<path opacity="0.4" d="M549.589 355.031C549.589 354.705 549.492 354.386 549.31 354.115C549.127 353.844 548.869 353.632 548.566 353.507C548.263 353.383 547.93 353.35 547.608 353.414C547.287 353.477 546.991 353.634 546.76 353.865C546.528 354.096 546.37 354.389 546.306 354.709C546.242 355.029 546.275 355.361 546.4 355.662C546.526 355.964 546.738 356.221 547.011 356.402C547.283 356.583 547.604 356.68 547.932 356.68C548.149 356.68 548.365 356.638 548.566 356.555C548.767 356.472 548.95 356.35 549.103 356.197C549.257 356.044 549.379 355.862 549.463 355.662C549.546 355.462 549.589 355.248 549.589 355.031Z" fill="#8625D2"/>
<path opacity="0.4" d="M552.821 298.651C552.821 298.17 552.677 297.7 552.409 297.3C552.14 296.9 551.758 296.588 551.312 296.404C550.865 296.22 550.374 296.171 549.899 296.265C549.425 296.359 548.99 296.591 548.648 296.931C548.306 297.271 548.073 297.705 547.979 298.176C547.884 298.648 547.933 299.137 548.118 299.582C548.303 300.026 548.616 300.406 549.018 300.674C549.42 300.941 549.893 301.084 550.376 301.084C551.025 301.084 551.646 300.827 552.105 300.371C552.563 299.915 552.821 299.296 552.821 298.651Z" fill="#8625D2"/>
<path opacity="0.8" d="M548.387 257.093C548.382 256.637 548.196 256.202 547.87 255.882C547.544 255.561 547.105 255.382 546.647 255.382C546.191 255.382 545.754 255.562 545.431 255.883C545.109 256.204 544.927 256.639 544.927 257.093C544.927 257.548 545.108 257.986 545.43 258.31C545.752 258.634 546.189 258.819 546.647 258.824C547.107 258.819 547.546 258.635 547.872 258.311C548.197 257.988 548.382 257.55 548.387 257.093Z" fill="#8625D2"/>
<path opacity="0.8" d="M572.999 326.707C572.999 326.007 572.719 325.336 572.222 324.841C571.725 324.346 571.05 324.068 570.347 324.068C569.644 324.068 568.969 324.346 568.472 324.841C567.975 325.336 567.695 326.007 567.695 326.707C567.695 327.407 567.975 328.078 568.472 328.573C568.969 329.068 569.644 329.346 570.347 329.346C571.05 329.346 571.725 329.068 572.222 328.573C572.719 328.078 572.999 327.407 572.999 326.707Z" fill="#8625D2"/>
<path opacity="0.8" d="M570.927 318.111C570.931 317.754 570.828 317.405 570.632 317.107C570.436 316.809 570.154 316.576 569.824 316.437C569.494 316.299 569.13 316.262 568.778 316.33C568.427 316.399 568.104 316.57 567.85 316.822C567.597 317.074 567.425 317.396 567.356 317.746C567.287 318.095 567.325 318.458 567.464 318.786C567.603 319.115 567.837 319.395 568.136 319.59C568.436 319.786 568.787 319.888 569.145 319.884C569.38 319.886 569.613 319.843 569.831 319.754C570.048 319.666 570.245 319.536 570.411 319.371C570.577 319.205 570.709 319.009 570.797 318.793C570.886 318.576 570.93 318.344 570.927 318.111Z" fill="#8625D2"/>
<circle cx="534" cy="414" r="4" fill="#1B181F"/>
</g>
<path d="M202 104.503C202 104.503 215.5 95.1074 221.5 91.349C227.5 87.5906 235.5 92 235.5 92L286.5 123.922" stroke="#8625D2" stroke-width="2"/>
<g clip-path="url(#clip2)">
<g opacity="0.4" filter="url(#filter1_d)">
<path d="M215.844 107.883V94.1289L213.313 92.7271C212.599 97.0138 207.516 99.858 203.271 100.447L174.326 117.33L161.712 121.881L121.398 101.077L122.337 100.549C118.887 99.0454 116.968 95.3072 115.172 91.9754L112.457 93.5804L110.844 94.0273V108.025C110.951 109.085 111.335 110.099 111.959 110.965C112.582 111.831 113.422 112.52 114.396 112.962L154.771 136.163C157.431 137.495 160.367 138.189 163.344 138.189C166.322 138.189 169.258 137.495 171.918 136.163L212.293 112.962C213.253 112.528 214.084 111.856 214.707 111.008C215.329 110.161 215.721 109.169 215.844 108.127C215.844 108.127 215.844 107.964 215.844 107.883Z" fill="#8625D2"/>
</g>
<path d="M215.844 95.6526V86.551L213.313 85.1492C212.599 89.4359 207.516 92.2801 203.271 92.8693L174.326 109.711L161.712 114.242L121.398 93.5397L122.337 92.9506C118.887 91.3456 117.029 87.6887 115.172 84.3366L112.457 85.9415L110.844 86.4697V95.7948C110.951 96.8549 111.335 97.8685 111.959 98.7347C112.582 99.601 113.422 100.289 114.396 100.732L154.771 123.933C157.431 125.265 160.367 125.959 163.344 125.959C166.322 125.959 169.258 125.265 171.918 123.933L212.293 100.732C213.256 100.296 214.089 99.6204 214.711 98.7695C215.334 97.9186 215.724 96.9218 215.844 95.8761C215.844 95.8761 215.844 95.7339 215.844 95.6526Z" fill="#1B181F"/>
<path opacity="0.3" d="M203.271 92.9506L174.326 109.711L163.344 113.653V125.964C166.329 126.025 169.281 125.326 171.918 123.932L212.293 100.732C213.256 100.296 214.089 99.6204 214.711 98.7695C215.334 97.9186 215.724 96.9218 215.844 95.8761C215.844 95.8761 215.844 95.7339 215.844 95.6526V86.551L213.518 85.2711H213.273C212.497 89.4968 207.476 92.2801 203.271 92.9506Z" fill="#1B181F"/>
<path d="M154.771 114.668L114.396 91.4671C109.66 88.7651 109.66 84.3362 114.396 81.6138L154.771 58.4129C157.431 57.0803 160.367 56.3862 163.344 56.3862C166.322 56.3862 169.258 57.0803 171.917 58.4129L212.293 81.6138C217.008 84.3362 217.008 88.7651 212.293 91.4671L171.917 114.668C169.261 116.01 166.323 116.709 163.344 116.709C160.365 116.709 157.428 116.01 154.771 114.668Z" fill="#1E1B22"/>
<path d="M212.293 91.4675L171.918 114.668C169.261 116.01 166.324 116.71 163.344 116.71C160.365 116.71 157.428 116.01 154.771 114.668L114.396 91.4675C113.507 91.0648 112.724 90.4627 112.108 89.7085C111.492 88.9542 111.059 88.0682 110.844 87.1199C110.799 88.2812 111.111 89.4286 111.738 90.4088C112.366 91.389 113.279 92.1552 114.355 92.6052L154.771 115.806C157.428 117.148 160.365 117.848 163.344 117.848C166.324 117.848 169.261 117.148 171.918 115.806L212.293 92.6052C213.371 92.1593 214.284 91.3933 214.909 90.4116C215.534 89.43 215.839 88.2805 215.783 87.1199C215.573 88.0617 215.15 88.9431 214.545 89.6968C213.94 90.4504 213.169 91.0561 212.293 91.4675Z" fill="#1E1B22"/>
<g filter="url(#filter2_d)">
<path d="M174.213 86.5539L167.964 90.1611L159.422 88.837L153.292 92.3757L170.218 94.9783L182.597 87.8324L174.213 86.5539Z" fill="#8625D2"/>
<path d="M178.326 77.6044L161.4 75.0017L163.654 79.819L172.196 81.1431L174.45 86.0517L182.834 87.3758L178.326 77.6044Z" fill="#8625D2"/>
<path d="M167.608 71.4174L172.908 74.4766L170.851 75.6638L162.546 74.3397L167.608 71.4174Z" fill="#8625D2"/>
<path d="M163.93 98.5171L158.631 95.4578L160.648 94.2934L168.953 95.6176L163.93 98.5171Z" fill="#8625D2"/>
<path d="M156.575 83.586L162.823 79.9787L160.569 75.1615L148.23 82.2846L152.739 92.056L158.868 88.5173L156.575 83.586Z" fill="#8625D2"/>
</g>
</g>
<path d="M283.265 155.02L308.883 2.96111L306.832 2.05521L309.922 0.27004C310.294 0.0686127 310.716 -0.0232811 311.138 0.00501324C311.56 0.0333076 311.965 0.180625 312.307 0.429899L517.135 118.757C518.003 119.31 518.707 120.084 519.175 121C519.644 121.916 519.859 122.94 519.8 123.966L493.968 277.171C493.94 277.503 493.826 277.821 493.636 278.095C493.447 278.368 493.189 278.587 492.889 278.73L489.865 280.489L489.345 277.651H489.519L285.916 160.216C285.053 159.663 284.353 158.89 283.887 157.977C283.421 157.064 283.206 156.044 283.265 155.02Z" fill="#1B181F"/>
<path d="M516.004 122.914L519.374 121.422C519.763 122.21 519.916 123.094 519.814 123.966L493.982 277.171C493.954 277.503 493.839 277.821 493.65 278.094C493.461 278.368 493.203 278.587 492.903 278.73L489.866 280.489L489.346 277.651H489.519L479.208 271.709L516.004 122.914Z" fill="#1B181F"/>
<path d="M282.705 162.068L487.534 280.315C489.119 281.235 490.478 280.702 490.758 279.063L516.589 125.858C516.646 124.832 516.429 123.809 515.961 122.894C515.493 121.979 514.79 121.204 513.925 120.649L309.097 2.34829C307.511 1.42906 306.166 1.96195 305.886 3.60057L280.054 156.806C279.982 157.84 280.191 158.875 280.657 159.801C281.124 160.727 281.831 161.51 282.705 162.068Z" fill="#1E1B22"/>
<g opacity="0.51">
<path opacity="0.51" d="M311.775 12.1267L509.209 126.125L484.737 270.457L287.422 156.552L311.775 12.1267Z" fill="#131219"/>
</g>
<path d="M153.947 234.62L165.124 240.455L277.217 175.75C278.374 175.222 279.639 174.975 280.91 175.028C282.181 175.081 283.421 175.433 284.53 176.056L477.862 287.669C479.7 286.63 488.146 282.567 488.146 282.567L484.043 293.225C483.825 293.77 483.419 294.219 482.898 294.49L364.836 362.646C363.678 363.171 362.413 363.417 361.143 363.363C359.873 363.31 358.633 362.96 357.523 362.34L159.675 248.129C158.931 247.754 158.346 247.125 158.023 246.357L153.947 234.62Z" fill="#1B181F"/>
<path d="M155.679 236.525L358.429 353.587C359.568 354.22 360.84 354.577 362.143 354.631C363.445 354.684 364.742 354.431 365.929 353.894L486.908 284.046C488.839 282.927 488.6 280.995 486.375 279.716L283.571 162.587C282.432 161.955 281.16 161.597 279.858 161.544C278.555 161.491 277.258 161.743 276.071 162.281L155.146 232.129C153.214 233.235 153.467 235.193 155.679 236.525Z" fill="#1E1B22"/>
<g filter="url(#filter3_d)">
<path d="M419.577 328.195V325.97C419.577 325.757 419.458 325.664 419.298 325.757L411.451 330.287C411.365 330.35 411.294 330.432 411.246 330.527C411.197 330.621 411.172 330.726 411.171 330.833V333.058C411.171 333.271 411.291 333.364 411.451 333.271L419.298 328.741C419.384 328.679 419.454 328.597 419.503 328.502C419.551 328.407 419.577 328.302 419.577 328.195Z" fill="#FF508F"/>
</g>
<g filter="url(#filter4_d)">
<path d="M407.854 334.963V332.738C407.854 332.538 407.721 332.432 407.574 332.525L399.727 337.055C399.641 337.117 399.571 337.199 399.522 337.294C399.474 337.389 399.448 337.494 399.448 337.601V339.826C399.448 340.039 399.567 340.132 399.727 340.039L407.574 335.509C407.66 335.446 407.729 335.363 407.778 335.269C407.826 335.174 407.852 335.069 407.854 334.963Z" fill="#FF508F"/>
</g>
<path d="M455.427 277.438L286.942 180.186C286.389 179.865 285.762 179.697 285.123 179.697C284.485 179.697 283.857 179.865 283.305 180.186L223.355 214.904C223.168 215.024 223.014 215.19 222.908 215.386C222.801 215.581 222.746 215.8 222.746 216.023C222.746 216.245 222.801 216.464 222.908 216.66C223.014 216.855 223.168 217.021 223.355 217.142L391.761 314.394C392.311 314.714 392.936 314.883 393.572 314.883C394.209 314.883 394.834 314.714 395.384 314.394L455.467 279.756C455.67 279.636 455.838 279.465 455.953 279.259C456.068 279.053 456.127 278.821 456.123 278.585C456.119 278.35 456.052 278.119 455.93 277.918C455.808 277.716 455.634 277.55 455.427 277.438Z" fill="#1E1B22"/>
<path d="M455.427 279.676L454.814 280.022L286.955 183.103C286.403 182.783 285.775 182.614 285.137 182.614C284.498 182.614 283.871 182.783 283.318 183.103L223.928 217.461L223.328 217.115C223.141 216.994 222.988 216.828 222.881 216.633C222.775 216.438 222.719 216.218 222.719 215.996C222.719 215.773 222.775 215.554 222.881 215.359C222.988 215.163 223.141 214.998 223.328 214.877L283.278 180.159C283.831 179.839 284.458 179.67 285.097 179.67C285.735 179.67 286.363 179.839 286.915 180.159L455.401 277.411C455.595 277.528 455.756 277.693 455.869 277.89C455.981 278.087 456.042 278.309 456.044 278.536C456.047 278.763 455.992 278.987 455.884 279.186C455.776 279.386 455.619 279.554 455.427 279.676Z" fill="#1B181F"/>
<path d="M278.736 188.952L425.08 273.454L431.594 269.698L285.237 185.195L278.736 188.952Z" fill="#25242C"/>
<path d="M262.776 198.158L400.048 277.411L406.562 273.668L269.277 194.401L262.776 198.158Z" fill="#25242C"/>
<path d="M252.384 204.166L414.009 297.474L420.51 293.717L258.899 200.409L252.384 204.166Z" fill="#25242C"/>
<path d="M241.993 210.161L403.617 303.469L410.132 299.712L248.507 206.404L241.993 210.161Z" fill="#25242C"/>
<path d="M231.602 216.156L393.226 309.478L399.741 305.721L238.116 212.399L231.602 216.156Z" fill="#25242C"/>
<path d="M433.926 278.557L440.427 282.314L446.941 278.557L440.427 274.8L433.926 278.557Z" fill="#25242C"/>
<path d="M410.971 283.726L424.48 291.519L430.981 287.762L417.472 279.969L410.971 283.726Z" fill="#25242C"/>
<path opacity="0.5" d="M280.4 300.978L234.972 274.747C233.2 273.721 233.2 272.082 234.972 271.03L266.039 253.098C267.034 252.593 268.134 252.329 269.25 252.329C270.365 252.329 271.466 252.593 272.46 253.098L317.889 279.33C319.674 280.355 319.674 281.994 317.889 283.033L286.835 300.978C285.838 301.484 284.736 301.747 283.618 301.747C282.5 301.747 281.397 301.484 280.4 300.978Z" fill="#25242C"/>
<path d="M317.889 280.848L272.46 254.617C271.466 254.111 270.366 253.848 269.25 253.848C268.134 253.848 267.034 254.111 266.039 254.617L234.972 272.495C234.503 272.752 234.115 273.135 233.853 273.601C233.387 272.695 233.746 271.683 234.972 270.937L266.039 253.005C267.034 252.499 268.134 252.236 269.25 252.236C270.366 252.236 271.466 252.499 272.46 253.005L317.889 279.236C319.128 279.942 319.488 280.955 319.008 281.901C318.747 281.448 318.357 281.082 317.889 280.848Z" fill="#1B181F"/>
<g clip-path="url(#clip3)">
<path d="M469.651 126.141C469.148 126.136 468.656 125.993 468.228 125.728C467.534 125.298 466.985 124.669 466.651 123.923C466.317 123.177 466.214 122.348 466.355 121.542C466.415 121.215 466.554 120.907 466.759 120.645C466.965 120.383 467.231 120.176 467.535 120.041C467.901 119.9 468.295 119.847 468.685 119.886C469.076 119.925 469.451 120.055 469.782 120.266C470.49 120.688 471.056 121.312 471.409 122.057C471.763 122.802 471.887 123.635 471.768 124.452C471.701 124.782 471.558 125.091 471.35 125.355C471.142 125.62 470.874 125.831 470.569 125.972C470.28 126.097 469.966 126.154 469.651 126.141ZM468.284 120.51C468.085 120.508 467.887 120.546 467.703 120.623C467.494 120.726 467.311 120.877 467.168 121.062C467.025 121.247 466.926 121.463 466.879 121.693C466.781 122.374 466.889 123.069 467.189 123.688C467.49 124.308 467.969 124.822 468.565 125.165C468.805 125.324 469.079 125.425 469.365 125.461C469.651 125.497 469.941 125.466 470.213 125.371C470.428 125.275 470.616 125.127 470.76 124.94C470.903 124.754 470.999 124.534 471.037 124.301C471.135 123.622 471.029 122.929 470.732 122.311C470.435 121.692 469.961 121.176 469.37 120.829C469.04 120.634 468.667 120.524 468.284 120.51Z" fill="#FF508F"/>
<path d="M477.405 130.608C476.903 130.594 476.413 130.452 475.982 130.195C475.293 129.759 474.748 129.13 474.415 128.385C474.082 127.641 473.976 126.814 474.109 126.009C474.169 125.682 474.307 125.374 474.513 125.112C474.719 124.85 474.985 124.643 475.289 124.508C475.655 124.365 476.049 124.311 476.439 124.351C476.83 124.39 477.206 124.521 477.536 124.733C478.247 125.152 478.816 125.774 479.17 126.52C479.524 127.267 479.646 128.102 479.521 128.919C479.455 129.249 479.312 129.558 479.104 129.823C478.895 130.087 478.628 130.298 478.323 130.439C478.033 130.564 477.72 130.621 477.405 130.608ZM476.038 124.977C475.702 124.969 475.376 125.086 475.12 125.304C474.864 125.522 474.698 125.826 474.652 126.16C474.549 126.839 474.653 127.534 474.95 128.154C475.248 128.773 475.725 129.288 476.319 129.632C476.559 129.791 476.833 129.892 477.119 129.928C477.405 129.964 477.695 129.933 477.967 129.838C478.181 129.741 478.368 129.592 478.511 129.406C478.655 129.219 478.751 129.001 478.791 128.768C478.889 128.089 478.783 127.396 478.486 126.778C478.189 126.159 477.715 125.643 477.124 125.296C476.783 125.095 476.396 124.985 476 124.977H476.038Z" fill="#FF508F"/>
<path d="M486.77 133.311C486.699 133.616 486.553 133.899 486.346 134.133C486.138 134.368 485.875 134.546 485.581 134.653C485.286 134.759 484.97 134.79 484.661 134.742C484.352 134.695 484.059 134.57 483.811 134.38C483.161 134.013 482.635 133.459 482.302 132.79C481.968 132.122 481.841 131.368 481.938 130.627C481.998 130.315 482.137 130.024 482.34 129.78C482.544 129.537 482.806 129.349 483.101 129.234C483.397 129.12 483.717 129.083 484.031 129.126C484.345 129.169 484.643 129.292 484.897 129.482C485.56 129.854 486.094 130.42 486.428 131.104C486.763 131.788 486.882 132.557 486.77 133.311Z" fill="#FF508F"/>
<g filter="url(#filter5_d)">
<path d="M338.792 47.9675L334.672 45.5838L334.99 43.6694L339.11 46.053L338.792 47.9675Z" fill="#FF508F"/>
</g>
<g filter="url(#filter6_d)">
<path d="M344.804 51.4398L340.665 49.0561L340.983 47.1416L345.123 49.5253L344.804 51.4398Z" fill="#FF508F"/>
</g>
<g filter="url(#filter7_d)">
<path d="M332.855 44.5327L323.809 39.2962L324.127 37.3817L333.173 42.6183L332.855 44.5327Z" fill="#FF508F"/>
</g>
<path d="M333.267 63.3394L323.416 57.6336L323.79 55.3438L333.66 61.0496L333.267 63.3394Z" fill="#8625D2"/>
<path d="M341.695 68.2006L336.75 65.3477L337.144 63.0578L342.07 65.9295L341.695 68.2006Z" fill="#8625D2"/>
<path d="M335.29 70.3778L331.094 67.9378L331.469 65.6667L335.664 68.088L335.29 70.3778Z" fill="#8625D2"/>
<path d="M342.332 74.4507L337.387 71.5978L337.781 69.3079L342.706 72.1608L342.332 74.4507Z" fill="#8625D2"/>
<path d="M349.58 84.5109L330.195 73.3058L330.57 71.0159L349.954 82.2398L349.58 84.5109Z" fill="#8625D2"/>
<path d="M332.761 129.388L313.377 118.164L313.77 115.874L333.154 127.098L332.761 129.388Z" fill="#8625D2"/>
<path d="M340.216 133.686L335.29 130.833L335.664 128.562L340.609 131.415L340.216 133.686Z" fill="#8625D2"/>
<path d="M333.492 81.0949L329.296 78.655L329.671 76.3839L333.885 78.8051L333.492 81.0949Z" fill="#8625D2"/>
<path d="M340.534 85.1678L335.608 82.3149L335.983 80.0251L340.927 82.878L340.534 85.1678Z" fill="#8625D2"/>
<path d="M339.054 90.198L328.397 84.0229L328.772 81.7331L339.429 87.9081L339.054 90.198Z" fill="#8625D2"/>
<path d="M346.19 94.3084L341.246 91.4555L341.639 89.1656L346.565 92.0373L346.19 94.3084Z" fill="#8625D2"/>
<path d="M353.363 98.4564L348.419 95.6035L348.812 93.3324L353.738 96.1853L353.363 98.4564Z" fill="#8625D2"/>
<path d="M364.938 105.157L355.592 99.7514L355.985 97.4804L365.312 102.867L364.938 105.157Z" fill="#8625D2"/>
<path d="M357.54 112.646L352.614 109.793L352.989 107.503L357.915 110.356L357.54 112.646Z" fill="#8625D2"/>
<path d="M369.114 119.328L359.787 113.941L360.162 111.651L369.489 117.057L369.114 119.328Z" fill="#8625D2"/>
<path d="M331.544 97.593L326.6 94.7401L326.993 92.4502L331.919 95.3031L331.544 97.593Z" fill="#8625D2"/>
<path d="M338.698 101.741L333.773 98.888L334.147 96.5982L339.092 99.4511L338.698 101.741Z" fill="#8625D2"/>
<path d="M350.273 108.442L340.946 103.036L341.32 100.746L350.666 106.152L350.273 108.442Z" fill="#8625D2"/>
<path d="M365.444 111.332L360.518 108.479L360.892 106.189L365.818 109.042L365.444 111.332Z" fill="#8625D2"/>
<path d="M372.617 115.48L367.672 112.627L368.065 110.337L372.991 113.19L372.617 115.48Z" fill="#8625D2"/>
<path d="M384.191 122.18L374.845 116.775L375.239 114.485L384.566 119.891L384.191 122.18Z" fill="#8625D2"/>
<path d="M347.951 138.153L343.006 135.3L343.399 133.029L348.325 135.882L347.951 138.153Z" fill="#8625D2"/>
<path d="M359.506 144.854L350.179 139.448L350.554 137.177L359.9 142.564L359.506 144.854Z" fill="#8625D2"/>
<path d="M329.746 108.31L324.802 105.457L325.195 103.167L330.121 106.02L329.746 108.31Z" fill="#8625D2"/>
<path d="M341.321 115.011L331.975 109.605L332.368 107.315L341.695 112.721L341.321 115.011Z" fill="#8625D2"/>
<path d="M353.326 147.143L348.381 144.29L348.775 142.001L353.7 144.872L353.326 147.143Z" fill="#8625D2"/>
<path d="M364.881 153.844L355.554 148.438L355.929 146.149L365.275 151.554L364.881 153.844Z" fill="#8625D2"/>
<path d="M364.32 93.0508L359.394 90.1979L359.769 87.9081L364.694 90.761L364.32 93.0508Z" fill="#8625D2"/>
<path d="M356.866 88.734L351.921 85.881L352.314 83.5912L357.24 86.4441L356.866 88.734Z" fill="#8625D2"/>
<path d="M375.894 99.7514L366.567 94.3459L366.942 92.0561L376.269 97.4616L375.894 99.7514Z" fill="#8625D2"/>
<path d="M331.956 91.9623L327.499 89.3721L327.873 87.1011L332.331 89.6724L331.956 91.9623Z" fill="#8625D2"/>
<path d="M345.141 99.6013L334.335 93.3324L334.709 91.0426L345.535 97.3114L345.141 99.6013Z" fill="#8625D2"/>
<path d="M358.345 107.222L347.52 100.971L347.913 98.6816L358.738 104.95L358.345 107.222Z" fill="#8625D2"/>
<path d="M382.749 103.712L378.292 101.14L378.685 98.8505L383.124 101.422L382.749 103.712Z" fill="#8625D2"/>
<path d="M395.953 111.351L385.127 105.101L385.521 102.811L396.327 109.061L395.953 111.351Z" fill="#8625D2"/>
<path d="M409.138 118.99L398.332 112.721L398.706 110.45L409.531 116.7L409.138 118.99Z" fill="#8625D2"/>
<path d="M336.62 106.414L325.794 100.146L326.187 97.8745L336.994 104.125L336.62 106.414Z" fill="#8625D2"/>
<path d="M342.332 109.718L338.998 107.785L339.373 105.514L342.707 107.428L342.332 109.718Z" fill="#8625D2"/>
<path d="M348.044 113.021L344.71 111.088L345.104 108.817L348.419 110.731L348.044 113.021Z" fill="#8625D2"/>
<path d="M358.607 119.14L350.423 114.41L350.816 112.12L358.982 116.85L358.607 119.14Z" fill="#8625D2"/>
<path d="M370.444 108.348L367.129 106.433L367.504 104.143L370.837 106.058L370.444 108.348Z" fill="#8625D2"/>
<path d="M381.007 114.466L372.841 109.737L373.216 107.447L381.4 112.177L381.007 114.466Z" fill="#8625D2"/>
<path d="M383.236 115.743L375.052 111.013L375.445 108.742L383.611 113.472L383.236 115.743Z" fill="#8625D2"/>
<path d="M339.71 145.154L329.053 138.998L329.446 136.708L340.103 142.864L339.71 145.154Z" fill="#8625D2"/>
<path d="M346.845 149.283L341.92 146.43L342.294 144.14L347.239 146.993L346.845 149.283Z" fill="#8625D2"/>
<path d="M354.019 153.431L349.093 150.578L349.468 148.288L354.412 151.141L354.019 153.431Z" fill="#8625D2"/>
<path d="M365.593 160.132L356.266 154.726L356.641 152.436L365.968 157.842L365.593 160.132Z" fill="#8625D2"/>
<path d="M372.991 164.411L368.065 161.558L368.44 159.268L373.384 162.121L372.991 164.411Z" fill="#8625D2"/>
<path d="M384.566 171.112L375.239 165.706L375.613 163.416L384.959 168.822L384.566 171.112Z" fill="#8625D2"/>
<path d="M349.074 162.328L344.13 159.475L344.523 157.185L349.449 160.038L349.074 162.328Z" fill="#8625D2"/>
<path d="M360.649 169.028L351.303 163.623L351.696 161.333L361.023 166.738L360.649 169.028Z" fill="#8625D2"/>
<path d="M323.303 147.425L318.378 144.553L318.752 142.282L323.678 145.135L323.303 147.425Z" fill="#8625D2"/>
<path d="M330.476 151.573L325.532 148.701L325.925 146.43L330.851 149.283L330.476 151.573Z" fill="#8625D2"/>
<path d="M342.051 158.255L332.705 152.868L333.098 150.578L342.425 155.984L342.051 158.255Z" fill="#8625D2"/>
<path d="M332.612 146.918L328.154 144.347L328.547 142.057L333.005 144.647L332.612 146.918Z" fill="#8625D2"/>
<path d="M345.815 154.557L334.99 148.307L335.383 146.017L346.19 152.286L345.815 154.557Z" fill="#8625D2"/>
<path d="M359.019 162.196L348.194 155.946L348.569 153.656L359.394 159.906L359.019 162.196Z" fill="#8625D2"/>
<path d="M319.67 151.179L308.844 144.929L309.219 142.639L320.044 148.908L319.67 151.179Z" fill="#8625D2"/>
<path d="M325.363 154.482L322.048 152.568L322.423 150.278L325.757 152.192L325.363 154.482Z" fill="#8625D2"/>
<path d="M331.076 157.785L327.761 155.871L328.135 153.581L331.469 155.514L331.076 157.785Z" fill="#8625D2"/>
<path d="M341.639 163.904L333.473 159.174L333.847 156.885L342.032 161.614L341.639 163.904Z" fill="#8625D2"/>
<path d="M343.868 165.199L335.702 160.469L336.076 158.18L344.242 162.909L343.868 165.199Z" fill="#8625D2"/>
<path d="M324.539 130.495L321.206 128.581L321.599 126.291L324.914 128.205L324.539 130.495Z" fill="#8625D2"/>
<path d="M335.102 136.614L326.918 131.884L327.311 129.594L335.477 134.324L335.102 136.614Z" fill="#8625D2"/>
<path d="M345.89 142.864L337.724 138.115L338.099 135.844L346.284 140.574L345.89 142.864Z" fill="#8625D2"/>
<path d="M387.487 178.675L382.562 175.823L382.936 173.533L387.881 176.386L387.487 178.675Z" fill="#8625D2"/>
<path d="M399.062 185.376L389.735 179.971L390.109 177.681L399.455 183.086L399.062 185.376Z" fill="#8625D2"/>
<path d="M369.283 168.146L361.117 163.416L361.492 161.126L369.657 165.856L369.283 168.146Z" fill="#8625D2"/>
<path d="M380.071 174.396L371.905 169.648L372.279 167.376L380.464 172.106L380.071 174.396Z" fill="#8625D2"/>
<path d="M318.752 107.841L315.437 105.908L315.812 103.618L319.145 105.551L318.752 107.841Z" fill="#8625D2"/>
<path d="M329.315 113.941L321.149 109.211L321.524 106.94L329.709 111.67L329.315 113.941Z" fill="#8625D2"/>
<path d="M340.122 120.191L331.937 115.461L332.331 113.171L340.496 117.901L340.122 120.191Z" fill="#8625D2"/>
<path d="M466.318 179.67C465.751 179.66 465.197 179.505 464.707 179.22L419.495 153.056C418.521 152.393 417.753 151.471 417.276 150.392C416.799 149.314 416.634 148.123 416.798 146.956L419.682 129.669C419.74 129.14 419.926 128.633 420.223 128.192C420.52 127.75 420.919 127.388 421.387 127.136C421.817 126.947 422.287 126.87 422.754 126.909C423.222 126.948 423.672 127.104 424.065 127.361L469.277 153.506C470.252 154.167 471.022 155.089 471.499 156.168C471.976 157.247 472.14 158.438 471.974 159.606L469.089 176.892C469.031 177.424 468.846 177.934 468.549 178.378C468.253 178.822 467.853 179.188 467.385 179.445C467.049 179.595 466.685 179.672 466.318 179.67ZM422.473 127.661C422.214 127.659 421.957 127.717 421.724 127.83C421.37 128.032 421.069 128.317 420.848 128.66C420.626 129.003 420.49 129.394 420.45 129.801L417.566 147.087C417.42 148.097 417.559 149.127 417.966 150.062C418.373 150.997 419.032 151.8 419.87 152.38L465.1 178.544C465.376 178.721 465.689 178.83 466.014 178.863C466.34 178.895 466.668 178.85 466.973 178.732C467.315 178.54 467.606 178.27 467.824 177.944C468.043 177.618 468.181 177.245 468.228 176.855L471.112 159.55C471.26 158.54 471.123 157.509 470.715 156.573C470.308 155.638 469.648 154.835 468.808 154.257L423.672 128.036C423.313 127.805 422.899 127.675 422.473 127.661Z" fill="#FF508F"/>
<path d="M461.336 209.382C460.775 209.373 460.226 209.218 459.744 208.931L414.513 182.767C413.545 182.102 412.782 181.177 412.312 180.099C411.842 179.02 411.683 177.831 411.854 176.667L414.719 159.381C414.777 158.852 414.963 158.345 415.26 157.903C415.556 157.462 415.956 157.099 416.424 156.847C416.853 156.659 417.322 156.58 417.788 156.616C418.255 156.652 418.706 156.802 419.102 157.053L464.295 183.218C465.286 183.886 466.068 184.824 466.548 185.92C467.029 187.017 467.189 188.227 467.011 189.411L464.108 206.604C464.056 207.135 463.876 207.645 463.582 208.09C463.288 208.535 462.89 208.901 462.422 209.156C462.08 209.307 461.709 209.383 461.336 209.382ZM417.472 157.373C417.213 157.372 416.957 157.43 416.723 157.541C416.384 157.736 416.093 158.006 415.876 158.332C415.658 158.658 415.518 159.03 415.468 159.418L412.565 176.705C412.424 177.716 412.566 178.747 412.977 179.682C413.387 180.617 414.049 181.418 414.888 181.998L460.118 208.18C460.394 208.357 460.707 208.466 461.032 208.499C461.358 208.532 461.686 208.487 461.991 208.368C462.335 208.177 462.63 207.908 462.851 207.582C463.072 207.256 463.214 206.882 463.265 206.491L466.168 189.186C466.314 188.175 466.173 187.142 465.763 186.206C465.352 185.271 464.688 184.469 463.845 183.893L418.709 157.729C418.333 157.508 417.908 157.385 417.472 157.373Z" fill="#FF508F"/>
<path style="mix-blend-mode:lighten" opacity="0.5" d="M423.597 151.122C424.384 151.592 425.095 151.423 425.376 150.691L430.583 136.257C431.182 134.606 433.654 136.107 434.16 138.435L437.419 152.962C437.674 154.046 438.347 154.984 439.292 155.571L440.078 156.021C440.828 156.453 441.502 156.321 441.801 155.702L442.869 153.412C443.543 152.005 445.753 153.412 446.371 155.514C446.643 156.51 447.269 157.371 448.132 157.936L448.806 158.311C449.63 158.799 450.342 158.593 450.679 157.842L451.653 154.82C452.196 153.112 454.668 154.538 455.23 156.885L458.489 170.323C458.749 171.395 459.423 172.32 460.362 172.895L423.597 151.122Z" fill="url(#paint2_linear)"/>
<path d="M454.462 202.55C453.447 201.912 452.721 200.902 452.439 199.734L449.199 186.296C449.097 185.708 448.832 185.16 448.435 184.716C448.037 184.271 447.523 183.947 446.952 183.781C446.812 183.774 446.675 183.817 446.565 183.903C446.455 183.989 446.379 184.113 446.352 184.25L445.378 187.272C445.32 187.478 445.215 187.668 445.072 187.827C444.93 187.986 444.752 188.111 444.554 188.191C444.297 188.266 444.027 188.285 443.762 188.246C443.497 188.207 443.244 188.112 443.019 187.966L442.344 187.534C441.416 186.913 440.749 185.971 440.471 184.888C440.357 184.334 440.097 183.822 439.718 183.402C439.34 182.983 438.856 182.673 438.318 182.504C438.191 182.48 438.061 182.503 437.95 182.568C437.84 182.634 437.757 182.738 437.718 182.861L436.632 185.132C436.559 185.305 436.449 185.461 436.31 185.587C436.171 185.713 436.006 185.808 435.827 185.864C435.577 185.943 435.313 185.966 435.054 185.93C434.795 185.895 434.547 185.801 434.328 185.658L433.542 185.207C432.531 184.555 431.818 183.53 431.556 182.354L428.279 167.827C427.96 166.419 426.837 165.312 426.05 165.274C425.75 165.274 425.563 165.387 425.432 165.706L420.169 180.139C420.105 180.336 419.997 180.515 419.855 180.664C419.712 180.814 419.538 180.929 419.345 181.003C419.092 181.082 418.824 181.103 418.561 181.064C418.298 181.025 418.048 180.927 417.828 180.778L418.221 180.027C418.344 180.117 418.484 180.179 418.633 180.208C418.782 180.237 418.936 180.233 419.083 180.196C419.168 180.161 419.244 180.107 419.305 180.039C419.367 179.971 419.412 179.89 419.439 179.802L424.702 165.368C424.799 165.08 424.986 164.831 425.236 164.658C425.486 164.486 425.784 164.399 426.088 164.411C426.833 164.594 427.509 164.992 428.031 165.556C428.554 166.12 428.9 166.824 429.028 167.583L432.287 182.11C432.502 183.076 433.078 183.922 433.898 184.475L434.684 184.907C434.801 184.994 434.935 185.055 435.077 185.088C435.218 185.12 435.365 185.122 435.508 185.094C435.591 185.071 435.666 185.029 435.728 184.97C435.79 184.911 435.837 184.838 435.864 184.757L436.932 182.486C437.043 182.222 437.236 182.001 437.482 181.855C437.728 181.71 438.015 181.648 438.299 181.679C439 181.862 439.637 182.236 440.139 182.759C440.641 183.283 440.99 183.935 441.146 184.644C441.398 185.538 441.963 186.311 442.738 186.821L443.412 187.215C443.532 187.309 443.673 187.373 443.823 187.403C443.972 187.432 444.127 187.426 444.273 187.384C444.365 187.347 444.447 187.288 444.512 187.213C444.577 187.138 444.623 187.049 444.648 186.953L445.566 184.006C445.649 183.709 445.828 183.448 446.076 183.264C446.324 183.081 446.625 182.985 446.933 182.992C447.674 183.169 448.349 183.557 448.874 184.11C449.399 184.663 449.753 185.357 449.892 186.108L453.151 199.547C453.279 200.031 453.502 200.485 453.808 200.881C454.113 201.278 454.495 201.609 454.93 201.855L454.462 202.55Z" fill="#FF508F"/>
</g>
<g filter="url(#filter8_d)">
<path d="M225.5 350L219 354" stroke="#FF508F" stroke-width="4" stroke-linecap="round" stroke-linejoin="round"/>
</g>
<circle cx="291" cy="351" r="2" fill="#8625D2"/>
<defs>
<filter id="filter0_d" x="289" y="418.5" width="17.5007" height="13.5007" filterUnits="userSpaceOnUse" color-interpolation-filters="sRGB">
<feFlood flood-opacity="0" result="BackgroundImageFix"/>
<feColorMatrix in="SourceAlpha" type="matrix" values="0 0 0 0 0 0 0 0 0 0 0 0 0 0 0 0 0 0 127 0"/>
<feOffset/>
<feGaussianBlur stdDeviation="1"/>
<feColorMatrix type="matrix" values="0 0 0 0 1 0 0 0 0 0.313726 0 0 0 0 0.560784 0 0 0 1 0"/>
<feBlend mode="normal" in2="BackgroundImageFix" result="effect1_dropShadow"/>
<feBlend mode="normal" in="SourceGraphic" in2="effect1_dropShadow" result="shape"/>
</filter>
<filter id="filter1_d" x="90.8445" y="71.9754" width="145" height="86.2141" filterUnits="userSpaceOnUse" color-interpolation-filters="sRGB">
<feFlood flood-opacity="0" result="BackgroundImageFix"/>
<feColorMatrix in="SourceAlpha" type="matrix" values="0 0 0 0 0 0 0 0 0 0 0 0 0 0 0 0 0 0 127 0"/>
<feOffset/>
<feGaussianBlur stdDeviation="10"/>
<feColorMatrix type="matrix" values="0 0 0 0 0.52549 0 0 0 0 0.145098 0 0 0 0 0.823529 0 0 0 1 0"/>
<feBlend mode="normal" in2="BackgroundImageFix" result="effect1_dropShadow"/>
<feBlend mode="normal" in="SourceGraphic" in2="effect1_dropShadow" result="shape"/>
</filter>
<filter id="filter2_d" x="128.23" y="51.4174" width="74.6038" height="67.0997" filterUnits="userSpaceOnUse" color-interpolation-filters="sRGB">
<feFlood flood-opacity="0" result="BackgroundImageFix"/>
<feColorMatrix in="SourceAlpha" type="matrix" values="0 0 0 0 0 0 0 0 0 0 0 0 0 0 0 0 0 0 127 0"/>
<feOffset/>
<feGaussianBlur stdDeviation="10"/>
<feColorMatrix type="matrix" values="0 0 0 0 0.52549 0 0 0 0 0.145098 0 0 0 0 0.823529 0 0 0 0.4 0"/>
<feBlend mode="normal" in2="BackgroundImageFix" result="effect1_dropShadow"/>
<feBlend mode="normal" in="SourceGraphic" in2="effect1_dropShadow" result="shape"/>
</filter>
<filter id="filter3_d" x="391.171" y="305.721" width="48.4063" height="47.5859" filterUnits="userSpaceOnUse" color-interpolation-filters="sRGB">
<feFlood flood-opacity="0" result="BackgroundImageFix"/>
<feColorMatrix in="SourceAlpha" type="matrix" values="0 0 0 0 0 0 0 0 0 0 0 0 0 0 0 0 0 0 127 0"/>
<feOffset/>
<feGaussianBlur stdDeviation="10"/>
<feColorMatrix type="matrix" values="0 0 0 0 1 0 0 0 0 0.313726 0 0 0 0 0.556863 0 0 0 1 0"/>
<feBlend mode="normal" in2="BackgroundImageFix" result="effect1_dropShadow"/>
<feBlend mode="normal" in="SourceGraphic" in2="effect1_dropShadow" result="shape"/>
</filter>
<filter id="filter4_d" x="379.448" y="312.491" width="48.4063" height="47.5839" filterUnits="userSpaceOnUse" color-interpolation-filters="sRGB">
<feFlood flood-opacity="0" result="BackgroundImageFix"/>
<feColorMatrix in="SourceAlpha" type="matrix" values="0 0 0 0 0 0 0 0 0 0 0 0 0 0 0 0 0 0 127 0"/>
<feOffset/>
<feGaussianBlur stdDeviation="10"/>
<feColorMatrix type="matrix" values="0 0 0 0 1 0 0 0 0 0.313726 0 0 0 0 0.556863 0 0 0 1 0"/>
<feBlend mode="normal" in2="BackgroundImageFix" result="effect1_dropShadow"/>
<feBlend mode="normal" in="SourceGraphic" in2="effect1_dropShadow" result="shape"/>
</filter>
<filter id="filter5_d" x="314.672" y="27.6694" width="44.4388" height="44.2981" filterUnits="userSpaceOnUse" color-interpolation-filters="sRGB">
<feFlood flood-opacity="0" result="BackgroundImageFix"/>
<feColorMatrix in="SourceAlpha" type="matrix" values="0 0 0 0 0 0 0 0 0 0 0 0 0 0 0 0 0 0 127 0"/>
<feOffset dy="4"/>
<feGaussianBlur stdDeviation="10"/>
<feColorMatrix type="matrix" values="0 0 0 0 0.996078 0 0 0 0 0.313726 0 0 0 0 0.556863 0 0 0 0.5 0"/>
<feBlend mode="normal" in2="BackgroundImageFix" result="effect1_dropShadow"/>
<feBlend mode="normal" in="SourceGraphic" in2="effect1_dropShadow" result="shape"/>
</filter>
<filter id="filter6_d" x="320.665" y="31.1416" width="44.4575" height="44.2981" filterUnits="userSpaceOnUse" color-interpolation-filters="sRGB">
<feFlood flood-opacity="0" result="BackgroundImageFix"/>
<feColorMatrix in="SourceAlpha" type="matrix" values="0 0 0 0 0 0 0 0 0 0 0 0 0 0 0 0 0 0 127 0"/>
<feOffset dy="4"/>
<feGaussianBlur stdDeviation="10"/>
<feColorMatrix type="matrix" values="0 0 0 0 0.996078 0 0 0 0 0.313726 0 0 0 0 0.556863 0 0 0 0.5 0"/>
<feBlend mode="normal" in2="BackgroundImageFix" result="effect1_dropShadow"/>
<feBlend mode="normal" in="SourceGraphic" in2="effect1_dropShadow" result="shape"/>
</filter>
<filter id="filter7_d" x="303.809" y="21.3817" width="49.3645" height="47.151" filterUnits="userSpaceOnUse" color-interpolation-filters="sRGB">
<feFlood flood-opacity="0" result="BackgroundImageFix"/>
<feColorMatrix in="SourceAlpha" type="matrix" values="0 0 0 0 0 0 0 0 0 0 0 0 0 0 0 0 0 0 127 0"/>
<feOffset dy="4"/>
<feGaussianBlur stdDeviation="10"/>
<feColorMatrix type="matrix" values="0 0 0 0 0.996078 0 0 0 0 0.313726 0 0 0 0 0.556863 0 0 0 0.5 0"/>
<feBlend mode="normal" in2="BackgroundImageFix" result="effect1_dropShadow"/>
<feBlend mode="normal" in="SourceGraphic" in2="effect1_dropShadow" result="shape"/>
</filter>
<filter id="filter8_d" x="215" y="346" width="14.5006" height="12.0006" filterUnits="userSpaceOnUse" color-interpolation-filters="sRGB">
<feFlood flood-opacity="0" result="BackgroundImageFix"/>
<feColorMatrix in="SourceAlpha" type="matrix" values="0 0 0 0 0 0 0 0 0 0 0 0 0 0 0 0 0 0 127 0"/>
<feOffset/>
<feGaussianBlur stdDeviation="1"/>
<feColorMatrix type="matrix" values="0 0 0 0 1 0 0 0 0 0.313726 0 0 0 0 0.560784 0 0 0 1 0"/>
<feBlend mode="normal" in2="BackgroundImageFix" result="effect1_dropShadow"/>
<feBlend mode="normal" in="SourceGraphic" in2="effect1_dropShadow" result="shape"/>
</filter>
<linearGradient id="paint0_linear" x1="70.1036" y1="166.382" x2="70.1036" y2="326.596" gradientUnits="userSpaceOnUse">
<stop stop-color="#141218"/>
<stop offset="1" stop-color="#8625D2"/>
</linearGradient>
<linearGradient id="paint1_linear" x1="561.844" y1="399.155" x2="561.844" y2="221.382" gradientUnits="userSpaceOnUse">
<stop stop-color="#8625D2"/>
<stop offset="1" stop-color="#141318"/>
</linearGradient>
<linearGradient id="paint2_linear" x1="427.062" y1="146.092" x2="492.075" y2="173.845" gradientUnits="userSpaceOnUse">
<stop stop-color="#FF508F"/>
<stop offset="1" stop-color="#1C1920"/>
</linearGradient>
<clipPath id="clip0">
<rect x="19.8445" y="166.382" width="100" height="198" fill="white"/>
</clipPath>
<clipPath id="clip1">
<rect x="506.844" y="221.382" width="110" height="214" fill="white"/>
</clipPath>
<clipPath id="clip2">
<rect x="110.844" y="56.3817" width="105" height="90" fill="white"/>
</clipPath>
<clipPath id="clip3">
<rect x="308.844" y="37.3817" width="178" height="172" fill="white"/>
</clipPath>
</defs>
</svg>
